<svg xmlns="http://www.w3.org/2000/svg" width="800" height="600" viewBox="0 0 800 600"><rect width="100%" height="100%" fill="#101010"/><path fill="#00ffff" d="M200.765 224.14v151.83h-28.35V224.14h28.35Zm77.49 42.42q11.97 0 21.78 3.89 9.82 3.88 16.8 11.02 6.99 7.14 10.77 17.43 3.78 10.29 3.78 23 0 12.8-3.78 23.1-3.78 10.29-10.77 17.53-6.98 7.25-16.8 11.13-9.81 3.88-21.78 3.88-12.08 0-21.95-3.88t-16.85-11.13q-6.98-7.24-10.82-17.53-3.83-10.3-3.83-23.1 0-12.71 3.83-23 3.84-10.29 10.82-17.43 6.98-7.14 16.85-11.02 9.87-3.89 21.95-3.89Zm0 91.03q13.44 0 19.89-9.02 6.46-9.03 6.46-26.46 0-17.44-6.46-26.57-6.45-9.13-19.89-9.13-13.65 0-20.22 9.18-6.56 9.19-6.56 26.52 0 17.32 6.56 26.4 6.57 9.08 20.22 9.08Zm183.12-133.45v23.2h-45.78v128.63h-28.25V247.34h-45.78v-23.2h119.81Zm118.12 127.68h38.96q4.2 0 6.66 2.36 2.47 2.36 2.47 6.25v15.54h-104.16v-8.61q0-2.62 1.1-5.51 1.11-2.89 3.52-5.2l46.1-46.2q5.77-5.88 10.34-11.23 4.57-5.36 7.61-10.61 3.05-5.25 4.67-10.66 1.63-5.4 1.63-11.39 0-5.46-1.57-9.61-1.58-4.14-4.47-6.98-2.88-2.84-6.93-4.25-4.04-1.42-9.08-1.42-4.62 0-8.56 1.31-3.93 1.32-6.98 3.68-3.04 2.36-5.14 5.51-2.1 3.15-3.15 6.93-1.79 4.83-4.62 6.41-2.84 1.57-8.19.73l-13.65-2.42q1.57-10.92 6.09-19.16 4.51-8.24 11.28-13.75 6.78-5.51 15.54-8.3 8.77-2.78 18.85-2.78 10.5 0 19.22 3.1 8.71 3.1 14.91 8.77 6.19 5.67 9.66 13.65 3.46 7.97 3.46 17.74 0 8.4-2.47 15.54-2.46 7.14-6.61 13.65-4.15 6.51-9.71 12.6-5.57 6.09-11.66 12.39l-34.23 34.96q4.94-1.46 9.82-2.25t9.29-.79Z"/></svg>