<svg xmlns="http://www.w3.org/2000/svg" width="800" height="600" viewBox="0 0 800 600"><rect width="100%" height="100%" fill="#101010"/><path fill="#00ffff" d="M200.87 224.085v151.83h-28.35v-151.83h28.35Zm77.49 42.42q11.97 0 21.78 3.89 9.82 3.88 16.8 11.02 6.99 7.14 10.77 17.43 3.78 10.29 3.78 23 0 12.8-3.78 23.1-3.78 10.29-10.77 17.53-6.98 7.25-16.8 11.13-9.81 3.88-21.78 3.88-12.08 0-21.95-3.88t-16.85-11.13q-6.98-7.24-10.82-17.53-3.83-10.3-3.83-23.1 0-12.71 3.83-23 3.84-10.29 10.82-17.43 6.98-7.14 16.85-11.02 9.87-3.89 21.95-3.89Zm0 91.03q13.44 0 19.89-9.02 6.46-9.03 6.46-26.46 0-17.44-6.46-26.57-6.45-9.13-19.89-9.13-13.65 0-20.22 9.18-6.56 9.19-6.56 26.52 0 17.32 6.56 26.4 6.57 9.08 20.22 9.08Zm183.12-133.45v23.2H415.7v128.63h-28.25v-128.63h-45.78v-23.2h119.81Zm79.06 44.73-13.65-2.42q1.58-10.92 6.09-19.16 4.52-8.24 11.29-13.75t15.54-8.3q8.77-2.78 18.85-2.78 10.5 0 18.95 2.99t14.44 8.3q5.98 5.3 9.18 12.44 3.21 7.14 3.21 15.44 0 7.24-1.63 12.75t-4.67 9.61q-3.05 4.1-7.56 6.93-4.52 2.83-10.19 4.72 13.65 4.31 20.37 13.13 6.72 8.82 6.72 22.15 0 11.35-4.2 20.06-4.2 8.72-11.34 14.65t-16.54 8.98q-9.39 3.04-19.89 3.04-11.45 0-19.95-2.62-8.51-2.63-14.81-7.77-6.3-5.15-10.71-12.6-4.41-7.46-7.56-17.22l11.45-4.73q4.51-1.89 8.45-1 3.94.9 5.72 4.26 1.89 3.67 4.15 7.24 2.26 3.57 5.41 6.35 3.15 2.78 7.4 4.52 4.25 1.73 10.13 1.73 6.62 0 11.55-2.15 4.94-2.15 8.24-5.62 3.31-3.46 4.94-7.72 1.63-4.25 1.63-8.55 0-5.46-1.16-9.93-1.15-4.46-4.83-7.61-3.67-3.15-10.55-4.93-6.88-1.79-18.43-1.79v-18.48q9.56-.11 15.86-1.78 6.3-1.69 10.02-4.68 3.73-2.99 5.2-7.19 1.47-4.2 1.47-9.24 0-10.71-5.98-16.27-5.99-5.57-15.96-5.57-4.62 0-8.51 1.31-3.88 1.32-6.98 3.68-3.1 2.36-5.2 5.51t-3.15 6.93q-1.78 4.83-4.67 6.41-2.89 1.57-8.14.73Z"/></svg>