<svg xmlns="http://www.w3.org/2000/svg" width="300" height="200" viewBox="0 0 300 200"><rect width="100%" height="100%" fill="#101010"/><path fill="#00ffff" d="M62.89 87.375v20.97h-3.91v-20.97h3.91Zm10.7 5.86q1.65 0 3.01.54 1.36.53 2.32 1.52.96.99 1.49 2.41.52 1.42.52 3.17 0 1.77-.52 3.19-.53 1.42-1.49 2.42t-2.32 1.54q-1.36.54-3.01.54-1.67 0-3.03-.54-1.36-.54-2.33-1.54-.96-1-1.49-2.42t-.53-3.19q0-1.75.53-3.17t1.49-2.41q.97-.99 2.33-1.52 1.36-.54 3.03-.54Zm0 12.57q1.86 0 2.75-1.24.89-1.25.89-3.66t-.89-3.67q-.89-1.26-2.75-1.26-1.88 0-2.79 1.27-.91 1.27-.91 3.66t.91 3.65q.91 1.25 2.79 1.25Zm25.29-18.43v3.21h-6.32v17.76h-3.9v-17.76h-6.32v-3.21h16.54Zm34.64 0h3.06l-6.51 20.97h-3.52l-4.59-14.33q-.18-.52-.34-1.27-.09.36-.18.68-.09.32-.19.59l-4.62 14.33h-3.54l-6.5-20.97h3.27q.5 0 .84.24.35.24.46.65l3.57 12.54q.11.46.22 1.01.11.54.23 1.14.11-.61.25-1.15.14-.54.3-1l4.12-12.54q.11-.34.45-.61.34-.28.84-.28h1.14q.51 0 .83.25.32.25.48.64l4.1 12.54q.31.9.55 2.07.19-1.14.42-2.07l3.57-12.54q.09-.37.44-.63.36-.26.85-.26Zm11.66 5.86q1.65 0 3.01.54 1.35.53 2.32 1.52.96.99 1.48 2.41.53 1.42.53 3.17 0 1.77-.53 3.19-.52 1.42-1.48 2.42-.97 1-2.32 1.54-1.36.54-3.01.54-1.67 0-3.03-.54-1.37-.54-2.33-1.54t-1.49-2.42q-.53-1.42-.53-3.19 0-1.75.53-3.17t1.49-2.41q.96-.99 2.33-1.52 1.36-.54 3.03-.54Zm0 12.57q1.85 0 2.75-1.24.89-1.25.89-3.66t-.89-3.67q-.9-1.26-2.75-1.26-1.89 0-2.79 1.27-.91 1.27-.91 3.66t.91 3.65q.9 1.25 2.79 1.25Zm13.24-11.44.21 1.68q.7-1.33 1.66-2.09.95-.76 2.26-.76 1.03 0 1.65.45l-.23 2.68q-.07.26-.21.37-.14.11-.37.11-.22 0-.64-.07-.43-.08-.84-.08-.59 0-1.06.18-.46.17-.83.5-.37.32-.65.79-.29.46-.53 1.06v9.16h-3.58v-14.88h2.1q.55 0 .77.2.21.19.29.7Zm7.65-7.57h3.58v12.34h.67q.36 0 .57-.09.21-.1.43-.39l3.7-4.56q.23-.31.51-.47.29-.16.74-.16h3.27l-4.62 5.53q-.49.65-1.08 1 .31.22.55.51.24.29.46.62l4.95 7.22h-3.23q-.42 0-.72-.14-.31-.14-.51-.5l-3.8-5.64q-.2-.33-.42-.43-.22-.11-.65-.11h-.82v6.82h-3.58v-21.55Zm25.39 8.28-.81 1.29q-.14.23-.3.33-.16.09-.41.09-.26 0-.56-.14-.3-.15-.69-.33-.39-.18-.89-.32-.5-.15-1.18-.15-1.06 0-1.66.45-.6.45-.6 1.17 0 .48.31.81.31.33.83.57.51.25 1.16.44.66.2 1.33.43.67.23 1.33.53.65.3 1.16.76.52.45.83 1.09.31.64.31 1.54 0 1.07-.38 1.98-.39.9-1.14 1.56-.75.66-1.86 1.03t-2.56.37q-.77 0-1.5-.14-.74-.13-1.41-.38-.67-.25-1.25-.58-.57-.33-1-.72l.82-1.37q.16-.24.38-.37.22-.14.55-.14.33 0 .63.19t.69.41q.39.22.92.4.53.19 1.34.19.64 0 1.1-.15.45-.15.75-.4.3-.24.43-.57.14-.33.14-.67 0-.53-.31-.86-.31-.33-.83-.58-.51-.25-1.17-.44-.66-.2-1.35-.43-.69-.23-1.35-.54-.66-.32-1.17-.79-.52-.48-.83-1.18-.31-.69-.31-1.68 0-.91.36-1.74.37-.83 1.07-1.44.7-.62 1.75-.99t2.43-.37q1.54 0 2.8.51 1.26.51 2.1 1.33Zm6.44-8.28v8.27q.87-.81 1.91-1.32 1.05-.51 2.45-.51 1.22 0 2.17.41.94.42 1.57 1.16.63.75.96 1.79.32 1.03.32 2.28v9.47h-3.58v-9.47q0-1.36-.62-2.11-.63-.75-1.9-.75-.93 0-1.74.43-.81.42-1.54 1.14v10.76h-3.58v-21.55h3.58Zm19.36 6.44q1.65 0 3.01.54 1.35.53 2.32 1.52.96.99 1.48 2.41.52 1.42.52 3.17 0 1.77-.52 3.19t-1.48 2.42q-.97 1-2.32 1.54-1.36.54-3.01.54-1.67 0-3.03-.54-1.37-.54-2.33-1.54t-1.49-2.42q-.53-1.42-.53-3.19 0-1.75.53-3.17t1.49-2.41q.96-.99 2.33-1.52 1.36-.54 3.03-.54Zm0 12.57q1.85 0 2.75-1.24.89-1.25.89-3.66t-.89-3.67q-.9-1.26-2.75-1.26-1.89 0-2.79 1.27-.91 1.27-.91 3.66t.91 3.65q.9 1.25 2.79 1.25Zm13.66-7.99v6.67q.61.74 1.32 1.05.72.3 1.56.3.81 0 1.47-.3.65-.31 1.11-.93.45-.62.7-1.57.25-.95.25-2.24 0-1.31-.21-2.22-.21-.9-.61-1.47-.39-.56-.95-.82-.55-.27-1.26-.27-1.12 0-1.9.48-.79.47-1.48 1.32Zm-.48-3.69.29 1.37q.91-1.03 2.07-1.66 1.16-.64 2.73-.64 1.22 0 2.22.5 1.01.51 1.74 1.48.74.96 1.13 2.37.4 1.42.4 3.25 0 1.66-.45 3.08-.45 1.42-1.28 2.47-.83 1.04-2.01 1.63-1.19.59-2.65.59-1.25 0-2.13-.39-.89-.38-1.58-1.06v6.09h-3.58v-19.74h2.19q.69 0 .91.66Z"/></svg>