<svg xmlns="http://www.w3.org/2000/svg" width="800" height="600" viewBox="0 0 800 600"><rect width="100%" height="100%" fill="#101010"/><path fill="#00ff00" d="M233.685 300.635q0 8.43-2.81 15.48-2.81 7.05-7.9 12.13-5.08 5.09-12.24 7.9-7.15 2.81-15.9 2.81h-29.2v-76.64h29.2q8.75 0 15.9 2.84 7.16 2.83 12.24 7.89 5.09 5.07 7.9 12.11 2.81 7.05 2.81 15.48Zm-14.63 0q0-6.31-1.67-11.31-1.67-5.01-4.82-8.48-3.15-3.48-7.63-5.33-4.48-1.86-10.1-1.86h-14.89v53.96h14.89q5.62 0 10.1-1.86 4.48-1.85 7.63-5.32 3.15-3.48 4.82-8.48 1.67-5.01 1.67-11.32Zm53.85 24.28v-9.17q-5.67.26-9.54.98-3.87.71-6.2 1.82-2.33 1.12-3.34 2.6-1.01 1.49-1.01 3.24 0 3.44 2.04 4.92 2.04 1.49 5.33 1.49 4.03 0 6.97-1.46 2.94-1.46 5.75-4.42Zm-27.67-28.57-2.33-4.19q9.38-8.58 22.58-8.58 4.77 0 8.53 1.56 3.77 1.56 6.36 4.34 2.6 2.79 3.95 6.66t1.35 8.48v34.34h-5.93q-1.86 0-2.87-.56-1-.55-1.59-2.25l-1.16-3.92q-2.07 1.85-4.03 3.26-1.96 1.4-4.08 2.36-2.12.95-4.53 1.45-2.41.51-5.33.51-3.44 0-6.36-.93-2.91-.93-5.03-2.78-2.12-1.86-3.29-4.61-1.17-2.76-1.17-6.42 0-2.06.69-4.1.69-2.04 2.26-3.9 1.56-1.85 4.05-3.5 2.49-1.64 6.12-2.86t8.46-1.99q4.82-.76 11.02-.92v-3.18q0-5.46-2.33-8.09-2.33-2.62-6.73-2.62-3.18 0-5.28.74-2.09.74-3.68 1.67-1.59.93-2.89 1.67-1.3.74-2.89.74-1.38 0-2.33-.71-.95-.72-1.54-1.67Zm70.86 43.46q-7.1 0-10.89-4-3.79-4-3.79-11.05v-30.37h-5.56q-1.06 0-1.8-.69-.75-.69-.75-2.07v-5.19l8.75-1.43 2.76-14.84q.26-1.06 1-1.65.74-.58 1.91-.58h6.78v17.12h14.53v9.33h-14.53v29.46q0 2.55 1.25 3.98 1.25 1.43 3.42 1.43 1.22 0 2.04-.29.82-.29 1.43-.61t1.09-.61q.47-.29.95-.29.58 0 .95.29.38.29.8.88l3.92 6.35q-2.86 2.39-6.57 3.61-3.71 1.22-7.69 1.22Zm50.04-14.89v-9.17q-5.67.26-9.54.98-3.87.71-6.2 1.82-2.34 1.12-3.34 2.6-1.01 1.49-1.01 3.24 0 3.44 2.04 4.92 2.04 1.49 5.33 1.49 4.02 0 6.97-1.46 2.94-1.46 5.75-4.42Zm-27.67-28.57-2.33-4.19q9.38-8.58 22.58-8.58 4.77 0 8.53 1.56t6.36 4.34q2.6 2.79 3.95 6.66t1.35 8.48v34.34h-5.94q-1.85 0-2.86-.56-1.01-.55-1.59-2.25l-1.16-3.92q-2.07 1.85-4.03 3.26-1.96 1.4-4.08 2.36-2.12.95-4.53 1.45-2.42.51-5.33.51-3.45 0-6.36-.93-2.92-.93-5.04-2.78-2.12-1.86-3.28-4.61-1.17-2.76-1.17-6.42 0-2.06.69-4.1.69-2.04 2.25-3.9 1.57-1.85 4.06-3.5 2.49-1.64 6.12-2.86t8.45-1.99q4.83-.76 11.03-.92v-3.18q0-5.46-2.34-8.09-2.33-2.62-6.73-2.62-3.18 0-5.27.74-2.09.74-3.68 1.67-1.59.93-2.89 1.67-1.3.74-2.89.74-1.38 0-2.33-.71-.96-.72-1.54-1.67Zm69.06 30.84h30.63v11.77h-44.89v-76.64h14.26v64.87Zm67.47-2.27v-9.17q-5.67.26-9.54.98-3.87.71-6.2 1.82-2.33 1.12-3.34 2.6-1.01 1.49-1.01 3.24 0 3.44 2.04 4.92 2.04 1.49 5.33 1.49 4.03 0 6.97-1.46 2.94-1.46 5.75-4.42Zm-27.67-28.57-2.33-4.19q9.38-8.58 22.58-8.58 4.77 0 8.53 1.56t6.36 4.34q2.6 2.79 3.95 6.66t1.35 8.48v34.34h-5.93q-1.86 0-2.87-.56-1-.55-1.59-2.25l-1.16-3.92q-2.07 1.85-4.03 3.26-1.96 1.4-4.08 2.36-2.12.95-4.53 1.45-2.41.51-5.33.51-3.44 0-6.36-.93-2.91-.93-5.03-2.78-2.12-1.86-3.29-4.61-1.17-2.76-1.17-6.42 0-2.06.69-4.1.69-2.04 2.26-3.9 1.56-1.85 4.05-3.5 2.49-1.64 6.12-2.86t8.45-1.99q4.83-.76 11.03-.92v-3.18q0-5.46-2.33-8.09-2.34-2.62-6.73-2.62-3.18 0-5.28.74-2.09.74-3.68 1.67-1.59.93-2.89 1.67-1.3.74-2.89.74-1.38 0-2.33-.71-.95-.72-1.54-1.67Zm65.83 4.13v24.38q2.22 2.71 4.85 3.82 2.62 1.11 5.54 1.11 3.02 0 5.43-1.09 2.41-1.08 4.11-3.39 1.69-2.3 2.59-5.88.9-3.58.9-8.56 0-8.96-2.96-12.96-2.97-4-8.54-4-3.76 0-6.57 1.72-2.81 1.73-5.35 4.85Zm0-40.28v31.06q3.28-3.44 7.29-5.49 4-2.04 9.14-2.04 4.72 0 8.51 1.86 3.78 1.85 6.46 5.33 2.68 3.47 4.11 8.4 1.43 4.93 1.43 11.07 0 6.63-1.64 12.03-1.65 5.41-4.69 9.25-3.05 3.85-7.34 5.97-4.3 2.11-9.54 2.11-2.55 0-4.62-.5-2.06-.5-3.81-1.4-1.75-.9-3.21-2.2-1.46-1.3-2.78-2.89l-.58 3.66q-.32 1.37-1.09 1.96-.77.58-2.09.58h-8.64v-78.76h13.09Zm107.43 68.96h13.78v9.8h-42.4v-9.8h15.53v-44.68q0-2.65.16-5.46l-11.03 9.22q-.95.74-1.88.93-.92.18-1.75.02-.82-.16-1.45-.55-.64-.4-.96-.88l-4.13-5.67 23.37-19.87h10.76v66.94Z"/></svg>