<svg xmlns="http://www.w3.org/2000/svg" width="300" height="200" viewBox="0 0 300 200"><rect width="100%" height="100%" fill="#101010"/><path fill="#00ff00" d="M90.52 100.275q0 3.66-1.22 6.72-1.22 3.06-3.43 5.26-2.2 2.21-5.31 3.43-3.1 1.22-6.9 1.22H60.99v-33.26h12.67q3.8 0 6.9 1.23 3.11 1.23 5.31 3.43 2.21 2.2 3.43 5.26 1.22 3.05 1.22 6.71Zm-6.35 0q0-2.74-.72-4.91-.73-2.17-2.1-3.68-1.36-1.51-3.31-2.31-1.94-.81-4.38-.81H67.2v23.42h6.46q2.44 0 4.38-.81 1.95-.8 3.31-2.31 1.37-1.5 2.1-3.68.72-2.17.72-4.91Zm23.37 10.54v-3.98q-2.46.11-4.14.42-1.68.31-2.69.79-1.01.49-1.45 1.13-.44.65-.44 1.4 0 1.5.89 2.14.88.65 2.31.65 1.75 0 3.02-.63 1.28-.64 2.5-1.92Zm-12.01-12.4-1.01-1.82q4.07-3.73 9.8-3.73 2.07 0 3.7.68 1.64.68 2.76 1.89 1.13 1.21 1.72 2.89.58 1.67.58 3.68v14.9h-2.57q-.81 0-1.24-.24-.44-.24-.69-.98l-.51-1.7q-.9.8-1.75 1.41-.85.61-1.77 1.03-.92.41-1.97.63-1.04.22-2.31.22-1.49 0-2.76-.4-1.26-.41-2.18-1.21-.92-.81-1.43-2-.5-1.2-.5-2.79 0-.89.29-1.78.3-.88.98-1.69.68-.8 1.76-1.52 1.08-.71 2.66-1.24 1.57-.53 3.67-.86 2.09-.34 4.78-.4v-1.38q0-2.37-1.01-3.51-1.01-1.14-2.92-1.14-1.38 0-2.29.32-.91.32-1.6.73-.69.4-1.25.72-.57.32-1.26.32-.59 0-1.01-.31-.41-.31-.67-.72Zm30.76 18.86q-3.09 0-4.73-1.74-1.65-1.73-1.65-4.79v-13.18h-2.41q-.46 0-.78-.3t-.32-.9v-2.25l3.79-.62 1.2-6.44q.11-.46.43-.72.33-.25.83-.25h2.95v7.43h6.3v4.05h-6.3v12.79q0 1.1.54 1.72.54.62 1.48.62.53 0 .88-.13.36-.12.63-.26.26-.14.47-.26.2-.13.41-.13.25 0 .42.13.16.12.34.37l1.7 2.77q-1.24 1.03-2.85 1.56t-3.33.53Zm21.71-6.46v-3.98q-2.46.11-4.14.42-1.68.31-2.69.79-1.02.49-1.45 1.13-.44.65-.44 1.4 0 1.5.89 2.14.88.65 2.31.65 1.75 0 3.02-.63 1.28-.64 2.5-1.92Zm-12.01-12.4-1.01-1.82q4.07-3.73 9.8-3.73 2.07 0 3.7.68 1.63.68 2.76 1.89t1.71 2.89q.59 1.67.59 3.68v14.9h-2.58q-.8 0-1.24-.24-.43-.24-.69-.98l-.5-1.7q-.9.8-1.75 1.41-.85.61-1.77 1.03-.92.41-1.97.63-1.05.22-2.31.22-1.5 0-2.76-.4-1.27-.41-2.19-1.21-.92-.81-1.42-2-.51-1.2-.51-2.79 0-.89.3-1.78.3-.88.98-1.69.68-.8 1.76-1.52 1.08-.71 2.65-1.24 1.58-.53 3.67-.86 2.1-.34 4.79-.4v-1.38q0-2.37-1.01-3.51-1.02-1.14-2.93-1.14-1.38 0-2.28.32-.91.32-1.6.73-.69.4-1.26.72-.56.32-1.25.32-.6 0-1.01-.31-.42-.31-.67-.72Zm41.15 13.38h13.29v5.11h-19.48v-33.26h6.19v28.15Zm29.28-.98v-3.98q-2.46.11-4.14.42-1.68.31-2.69.79-1.02.49-1.45 1.13-.44.65-.44 1.4 0 1.5.89 2.14.88.65 2.31.65 1.75 0 3.02-.63 1.28-.64 2.5-1.92Zm-12.01-12.4-1.01-1.82q4.07-3.73 9.8-3.73 2.07 0 3.7.68 1.63.68 2.76 1.89t1.71 2.89q.59 1.67.59 3.68v14.9h-2.58q-.8 0-1.24-.24-.43-.24-.69-.98l-.5-1.7q-.9.8-1.75 1.41-.85.61-1.77 1.03-.92.41-1.97.63-1.05.22-2.31.22-1.5 0-2.76-.4-1.27-.41-2.19-1.21-.92-.81-1.42-2-.51-1.2-.51-2.79 0-.89.3-1.78.3-.88.98-1.69.68-.8 1.76-1.52 1.08-.71 2.65-1.24 1.58-.53 3.67-.86 2.1-.34 4.79-.4v-1.38q0-2.37-1.01-3.51-1.02-1.14-2.93-1.14-1.38 0-2.28.32-.91.32-1.6.73-.69.4-1.26.72-.56.32-1.25.32-.6 0-1.01-.31-.42-.31-.67-.72Zm28.57 1.79v10.58q.96 1.17 2.1 1.66 1.14.48 2.41.48 1.31 0 2.35-.47 1.05-.47 1.79-1.47.73-1 1.12-2.56.39-1.55.39-3.71 0-3.89-1.28-5.62-1.29-1.74-3.71-1.74-1.63 0-2.85.75-1.22.75-2.32 2.1Zm0-17.48v13.48q1.42-1.5 3.16-2.38 1.74-.89 3.97-.89 2.04 0 3.69.81 1.64.8 2.8 2.31 1.17 1.51 1.79 3.65.62 2.14.62 4.8 0 2.88-.71 5.22-.72 2.35-2.04 4.02-1.32 1.67-3.19 2.59-1.86.91-4.14.91-1.1 0-2-.21-.89-.22-1.65-.61-.76-.39-1.39-.96-.64-.56-1.21-1.25l-.25 1.59q-.14.59-.48.85-.33.25-.9.25h-3.75v-34.18h5.68Z"/></svg>