<svg xmlns="http://www.w3.org/2000/svg" width="800" height="600" viewBox="0 0 800 600"><rect width="100%" height="100%" fill="#101010"/><path fill="#CCCCCC" d="M213.3 311.255q1.06 0 1.88.82l5.08 5.52q-4.22 5.23-10.39 8.01-6.17 2.79-14.81 2.79-7.72 0-13.89-2.64-6.17-2.64-10.54-7.35-4.37-4.7-6.69-11.23-2.33-6.53-2.33-14.25 0-7.83 2.49-14.33 2.5-6.51 7.04-11.21 4.53-4.7 10.82-7.32t13.92-2.62q7.58 0 13.46 2.5 5.88 2.5 10.01 6.53l-4.32 6q-.38.57-.98 1.01-.6.43-1.66.43-.72 0-1.49-.41-.76-.41-1.68-1.01-.91-.6-2.11-1.32-1.2-.72-2.78-1.32-1.59-.6-3.67-1.01-2.09-.4-4.83-.4-4.65 0-8.52 1.65-3.86 1.66-6.65 4.8-2.78 3.15-4.32 7.68-1.53 4.54-1.53 10.35 0 5.85 1.65 10.41 1.66 4.56 4.49 7.68t6.67 4.78q3.84 1.65 8.26 1.65 2.64 0 4.78-.28 2.13-.29 3.93-.92 1.8-.62 3.41-1.6 1.61-.99 3.19-2.43.48-.43 1.01-.69.53-.27 1.1-.27Zm49.2-32.88h9.51l-26.83 62.79q-.53 1.24-1.37 1.89-.84.65-2.57.65h-8.83l9.21-19.78-19.92-45.55h10.42q1.39 0 2.18.67.8.68 1.18 1.54l10.46 25.54q.53 1.29.89 2.59.36 1.29.7 2.64.43-1.35.86-2.67.43-1.32.96-2.61l9.89-25.49q.38-.96 1.27-1.58.89-.63 1.99-.63Zm27.27 14.4v22.08q2.01 2.45 4.39 3.46 2.38 1.01 5.02 1.01 2.73 0 4.92-.99 2.18-.98 3.72-3.07 1.53-2.09 2.35-5.33.81-3.24.81-7.75 0-8.11-2.68-11.74-2.69-3.62-7.73-3.62-3.41 0-5.95 1.56-2.55 1.56-4.85 4.39Zm0-36.48v28.13q2.97-3.12 6.6-4.97 3.62-1.85 8.28-1.85 4.27 0 7.7 1.68 3.43 1.68 5.86 4.83 2.42 3.14 3.72 7.61 1.29 4.46 1.29 10.03 0 6-1.48 10.89-1.49 4.9-4.25 8.38-2.76 3.48-6.65 5.4-3.89 1.92-8.64 1.92-2.3 0-4.18-.46-1.87-.45-3.45-1.27-1.59-.81-2.91-1.99t-2.52-2.62l-.52 3.32q-.29 1.24-.99 1.77-.69.53-1.89.53h-7.83v-71.33h11.86Zm51.98 41.04h22.37q0-2.3-.65-4.34t-1.94-3.58q-1.3-1.53-3.29-2.42-1.99-.89-4.63-.89-5.14 0-8.09 2.93t-3.77 8.3Zm30.24 7.15h-30.48q.29 3.8 1.35 6.56 1.05 2.76 2.78 4.56 1.73 1.8 4.1 2.68 2.38.89 5.26.89t4.97-.67q2.09-.67 3.65-1.49 1.56-.81 2.73-1.49 1.18-.67 2.28-.67 1.49 0 2.21 1.11l3.41 4.32q-1.97 2.3-4.42 3.86t-5.11 2.5q-2.66.93-5.42 1.32-2.76.38-5.36.38-5.13 0-9.55-1.7-4.41-1.71-7.68-5.04-3.26-3.34-5.13-8.26-1.88-4.92-1.88-11.4 0-5.04 1.64-9.48 1.63-4.44 4.68-7.73 3.04-3.29 7.44-5.21 4.39-1.92 9.91-1.92 4.65 0 8.59 1.49 3.94 1.49 6.77 4.35 2.83 2.85 4.44 7 1.61 4.16 1.61 9.48 0 2.69-.58 3.63-.58.93-2.21.93Zm22.13-23.13.72 5.57q2.3-4.42 5.47-6.94 3.17-2.52 7.49-2.52 3.41 0 5.47 1.49l-.77 8.88q-.24.86-.69 1.22-.46.36-1.23.36-.72 0-2.13-.24-1.42-.24-2.76-.24-1.97 0-3.51.58-1.53.57-2.76 1.65-1.22 1.08-2.16 2.62-.93 1.54-1.75 3.5v30.34h-11.85v-49.25h6.96q1.82 0 2.54.65t.96 2.33Zm67.39-16.61-3.21 6.1q-.58 1-1.23 1.46-.65.46-1.61.46-1 0-2.18-.75-1.18-.74-2.81-1.65-1.63-.92-3.81-1.66-2.19-.74-5.16-.74-2.69 0-4.71.64-2.01.65-3.38 1.8-1.37 1.16-2.04 2.76-.67 1.61-.67 3.53 0 2.45 1.36 4.08 1.37 1.63 3.63 2.79 2.25 1.15 5.13 2.06 2.88.91 5.91 1.94 3.02 1.04 5.9 2.4 2.88 1.37 5.14 3.46 2.25 2.09 3.62 5.11 1.37 3.03 1.37 7.35 0 4.7-1.61 8.8-1.61 4.11-4.7 7.16-3.1 3.04-7.56 4.8-4.47 1.75-10.23 1.75-3.31 0-6.52-.65-3.22-.65-6.17-1.85-2.95-1.2-5.55-2.88-2.59-1.68-4.6-3.74l3.79-6.19q.48-.68 1.25-1.13.76-.46 1.63-.46 1.2 0 2.59.99 1.39.98 3.31 2.18 1.92 1.2 4.49 2.18 2.57.99 6.17.99 5.52 0 8.54-2.62 3.03-2.61 3.03-7.51 0-2.74-1.37-4.46-1.37-1.73-3.63-2.91-2.25-1.17-5.13-1.99-2.88-.82-5.86-1.78-2.97-.96-5.85-2.3-2.88-1.34-5.14-3.5t-3.62-5.4q-1.37-3.24-1.37-8 0-3.79 1.51-7.39 1.51-3.6 4.39-6.38 2.88-2.79 7.11-4.47 4.22-1.68 9.69-1.68 6.15 0 11.33 1.92t8.83 5.38Zm19.97 32.59h22.37q0-2.3-.65-4.34t-1.94-3.58q-1.3-1.53-3.29-2.42-1.99-.89-4.63-.89-5.14 0-8.09 2.93t-3.77 8.3Zm30.24 7.15h-30.48q.29 3.8 1.34 6.56 1.06 2.76 2.79 4.56 1.73 1.8 4.1 2.68 2.38.89 5.26.89t4.97-.67q2.08-.67 3.64-1.49 1.56-.81 2.74-1.49 1.18-.67 2.28-.67 1.49 0 2.21 1.11l3.41 4.32q-1.97 2.3-4.42 3.86t-5.11 2.5q-2.67.93-5.43 1.32-2.76.38-5.35.38-5.13 0-9.55-1.7-4.42-1.71-7.68-5.04-3.26-3.34-5.14-8.26-1.87-4.92-1.87-11.4 0-5.04 1.63-9.48 1.64-4.44 4.68-7.73 3.05-3.29 7.44-5.21 4.4-1.92 9.92-1.92 4.65 0 8.59 1.49 3.93 1.49 6.77 4.35 2.83 2.85 4.44 7 1.6 4.16 1.6 9.48 0 2.69-.57 3.63-.58.93-2.21.93Zm50.06-20.01-3.12 4.32q-.52.67-1.03 1.05-.5.39-1.46.39-.91 0-1.78-.55-.86-.56-2.06-1.25-1.2-.7-2.86-1.25-1.65-.55-4.1-.55-3.12 0-5.47 1.13-2.36 1.12-3.92 3.24-1.56 2.11-2.32 5.11-.77 3-.77 6.79 0 3.94.84 7.01t2.42 5.16q1.59 2.09 3.84 3.17 2.26 1.08 5.09 1.08t4.58-.7q1.76-.7 2.96-1.54 1.2-.84 2.08-1.53.89-.7 2-.7 1.44 0 2.16 1.11l3.4 4.32q-1.96 2.3-4.27 3.86-2.3 1.56-4.77 2.5-2.48.93-5.09 1.32-2.62.38-5.21.38-4.56 0-8.59-1.7-4.03-1.71-7.06-4.97-3.02-3.27-4.77-7.99-1.76-4.73-1.76-10.78 0-5.42 1.56-10.06 1.56-4.63 4.59-8.01 3.02-3.39 7.49-5.31 4.46-1.92 10.27-1.92 5.52 0 9.67 1.78t7.46 5.09Zm54.63 32.11h17.81q1.92 0 3.04 1.08 1.13 1.08 1.13 2.86v7.1h-47.61v-3.94q0-1.2.5-2.52t1.61-2.37l21.07-21.12q2.64-2.69 4.73-5.14 2.09-2.45 3.48-4.85 1.39-2.4 2.13-4.87.75-2.47.75-5.21 0-2.49-.72-4.39-.72-1.89-2.04-3.19t-3.17-1.94q-1.85-.65-4.15-.65-2.11 0-3.91.6-1.8.6-3.2 1.68-1.39 1.08-2.35 2.52-.96 1.44-1.44 3.17-.81 2.2-2.11 2.92-1.3.72-3.74.34l-6.24-1.1q.72-5 2.78-8.76 2.06-3.77 5.16-6.29t7.1-3.79q4.01-1.28 8.62-1.28 4.8 0 8.78 1.42 3.99 1.42 6.82 4.01t4.42 6.24q1.58 3.65 1.58 8.11 0 3.84-1.13 7.1-1.13 3.27-3.02 6.24-1.9 2.98-4.44 5.76-2.55 2.79-5.33 5.67l-15.65 15.98q2.26-.67 4.49-1.03 2.23-.36 4.25-.36Z"/></svg>