<svg xmlns="http://www.w3.org/2000/svg" width="300" height="200" viewBox="0 0 300 200"><rect width="100%" height="100%" fill="#101010"/><path fill="#CCCCCC" d="M81.54 104.805q.45 0 .8.35l2.17 2.36q-1.8 2.23-4.43 3.42-2.64 1.19-6.33 1.19-3.3 0-5.93-1.13-2.64-1.13-4.5-3.14-1.87-2.01-2.86-4.79-1-2.79-1-6.09 0-3.34 1.07-6.12 1.06-2.78 3-4.79 1.94-2.01 4.62-3.12 2.69-1.12 5.95-1.12 3.24 0 5.75 1.06 2.51 1.07 4.27 2.79l-1.84 2.57q-.16.24-.42.43-.26.18-.71.18-.31 0-.63-.17-.33-.18-.72-.43-.39-.26-.9-.57-.52-.31-1.19-.56-.68-.26-1.57-.43-.89-.18-2.06-.18-1.99 0-3.64.71-1.65.71-2.84 2.05-1.19 1.34-1.84 3.28-.66 1.94-.66 4.42 0 2.5.71 4.45.7 1.94 1.91 3.28 1.21 1.33 2.85 2.04 1.64.7 3.53.7 1.13 0 2.04-.12.91-.12 1.68-.39.77-.27 1.46-.69.68-.42 1.36-1.03.2-.19.43-.3.23-.11.47-.11Zm21.01-14.04h4.06l-11.46 26.81q-.22.53-.58.81t-1.1.28H89.7l3.94-8.45-8.51-19.45h4.45q.59 0 .93.28.34.29.5.66l4.47 10.91q.23.55.38 1.1.15.56.3 1.13.18-.57.37-1.14.18-.56.41-1.11l4.22-10.89q.16-.41.54-.68.38-.26.85-.26Zm11.65 6.15v9.43q.86 1.04 1.87 1.47 1.02.43 2.15.43 1.16 0 2.1-.42.93-.42 1.59-1.31.65-.89 1-2.27.35-1.39.35-3.32 0-3.46-1.15-5.01-1.15-1.55-3.3-1.55-1.46 0-2.54.67-1.09.67-2.07 1.88Zm0-15.58v12.01q1.27-1.33 2.82-2.12 1.54-.79 3.53-.79 1.83 0 3.29.72 1.47.71 2.5 2.06 1.04 1.34 1.59 3.25.56 1.9.56 4.28 0 2.56-.64 4.65-.63 2.09-1.81 3.58-1.18 1.49-2.84 2.31-1.66.82-3.69.82-.99 0-1.79-.2-.8-.19-1.47-.54-.68-.35-1.24-.85-.57-.5-1.08-1.12l-.22 1.42q-.13.53-.42.75-.3.23-.81.23h-3.35v-30.46h5.07Zm22.2 17.52h9.55q0-.98-.27-1.85-.28-.87-.83-1.53-.56-.65-1.41-1.03-.85-.38-1.98-.38-2.19 0-3.45 1.25-1.26 1.25-1.61 3.54Zm12.91 3.06H136.3q.12 1.62.57 2.8.45 1.18 1.19 1.94.74.77 1.75 1.15 1.02.38 2.25.38t2.12-.29q.89-.28 1.56-.63.66-.35 1.17-.64.5-.28.97-.28.63 0 .94.47l1.46 1.84q-.84.99-1.89 1.65-1.04.67-2.18 1.07-1.14.4-2.32.56-1.18.17-2.28.17-2.2 0-4.08-.73-1.89-.73-3.28-2.15-1.4-1.43-2.2-3.53-.8-2.1-.8-4.87 0-2.15.7-4.05.7-1.89 2-3.3 1.3-1.4 3.18-2.22 1.87-.82 4.23-.82 1.99 0 3.67.63 1.68.64 2.89 1.86 1.21 1.22 1.9 2.99.68 1.78.68 4.05 0 1.15-.24 1.55-.25.4-.95.4Zm9.45-9.88.31 2.38q.99-1.89 2.34-2.97 1.35-1.07 3.2-1.07 1.45 0 2.33.63l-.32 3.8q-.11.36-.3.52-.2.15-.52.15-.31 0-.92-.1-.6-.1-1.17-.1-.85 0-1.5.24-.66.25-1.18.71-.52.46-.92 1.12-.4.65-.75 1.49v12.96h-5.06v-21.03h2.97q.78 0 1.08.27.31.28.41 1Zm38.75-7.1-1.37 2.61q-.25.43-.53.62-.27.2-.68.2-.43 0-.94-.32-.5-.32-1.2-.71-.69-.39-1.62-.7-.94-.32-2.21-.32-1.15 0-2.01.28-.86.27-1.44.76-.59.5-.87 1.18-.29.69-.29 1.51 0 1.04.58 1.74.59.7 1.55 1.19.96.49 2.19.88t2.53.83q1.29.44 2.52 1.03 1.23.58 2.19 1.47.96.9 1.55 2.19.58 1.29.58 3.13 0 2.01-.68 3.77-.69 1.75-2.01 3.05-1.33 1.3-3.23 2.05-1.91.75-4.37.75-1.41 0-2.79-.28-1.37-.28-2.63-.79-1.26-.51-2.37-1.23t-1.97-1.6l1.62-2.64q.21-.29.54-.48.32-.2.69-.2.52 0 1.11.42.59.42 1.41.93.82.52 1.92.94 1.1.42 2.64.42 2.35 0 3.64-1.12 1.3-1.12 1.3-3.21 0-1.17-.59-1.9-.58-.74-1.55-1.24-.96-.51-2.19-.86-1.23-.34-2.5-.75t-2.5-.99q-1.23-.57-2.19-1.49-.97-.93-1.55-2.31-.59-1.38-.59-3.41 0-1.62.65-3.16.64-1.54 1.87-2.73t3.04-1.9q1.8-.72 4.14-.72 2.62 0 4.84.82 2.21.82 3.77 2.29Zm8.53 13.92h9.55q0-.98-.28-1.85-.27-.87-.83-1.53-.55-.65-1.4-1.03-.85-.38-1.98-.38-2.19 0-3.45 1.25-1.26 1.25-1.61 3.54Zm12.91 3.06h-13.01q.12 1.62.57 2.8.45 1.18 1.19 1.94.74.77 1.75 1.15 1.02.38 2.25.38t2.12-.29q.89-.28 1.56-.63.66-.35 1.16-.64.51-.28.98-.28.63 0 .94.47l1.46 1.84q-.84.99-1.89 1.65-1.05.67-2.18 1.07-1.14.4-2.32.56-1.18.17-2.29.17-2.19 0-4.07-.73-1.89-.73-3.28-2.15-1.4-1.43-2.2-3.53-.8-2.1-.8-4.87 0-2.15.7-4.05.7-1.89 2-3.3 1.3-1.4 3.18-2.22 1.87-.82 4.23-.82 1.99 0 3.67.63 1.68.64 2.89 1.86 1.21 1.22 1.9 2.99.68 1.78.68 4.05 0 1.15-.24 1.55-.25.4-.95.4Zm21.38-8.55-1.33 1.85q-.22.28-.44.45-.21.16-.62.16-.39 0-.76-.24-.37-.23-.88-.53-.52-.3-1.22-.53-.71-.24-1.76-.24-1.33 0-2.33.48-1.01.49-1.67 1.39-.67.9-1 2.18-.33 1.28-.33 2.9 0 1.68.36 3 .36 1.31 1.04 2.2.67.89 1.64 1.35.96.46 2.17.46t1.96-.29q.75-.3 1.26-.66.51-.36.89-.66.38-.29.85-.29.62 0 .92.47l1.46 1.84q-.84.99-1.83 1.65-.98.67-2.03 1.07-1.06.4-2.18.56-1.12.17-2.22.17-1.95 0-3.67-.73t-3.02-2.12q-1.29-1.4-2.03-3.42-.75-2.01-.75-4.6 0-2.31.66-4.29.67-1.98 1.96-3.43 1.29-1.44 3.2-2.26 1.91-.82 4.39-.82 2.35 0 4.13.76 1.77.76 3.18 2.17Z"/></svg>