<svg xmlns="http://www.w3.org/2000/svg" width="800" height="600" viewBox="0 0 800 600"><rect width="100%" height="100%" fill="#101010"/><path fill="#00ffff" d="M182.31 300.71h21.16l-8.1-22.12q-.6-1.47-1.24-3.5-.64-2.02-1.29-4.37-.6 2.35-1.24 4.4-.64 2.04-1.24 3.56l-8.05 22.03Zm16.88-41.4 26.13 66.52h-9.57q-1.61 0-2.62-.8-1.01-.81-1.52-2.01l-4.97-13.57h-27.55l-4.97 13.57q-.37 1.06-1.43 1.94-1.06.87-2.62.87h-9.66l26.18-66.52h12.6Zm45.45 0v66.52h-12.42v-66.52h12.42Zm49.58 33.45h9.25q3.41 0 5.94-.85 2.53-.86 4.2-2.44 1.68-1.59 2.51-3.87.83-2.27.83-5.08 0-2.67-.83-4.83t-2.48-3.68q-1.66-1.52-4.19-2.32-2.53-.81-5.98-.81h-9.25v23.88Zm-12.37-33.45h21.62q6.67 0 11.55 1.57 4.87 1.56 8.05 4.37 3.17 2.8 4.71 6.71t1.54 8.56q0 4.83-1.61 8.86-1.61 4.02-4.83 6.92-3.22 2.9-8.07 4.51-4.85 1.61-11.34 1.61h-9.25v23.41h-12.37v-66.52Zm65.18 22.18.69 5.33q2.21-4.23 5.25-6.65 3.03-2.41 7.17-2.41 3.27 0 5.25 1.43l-.74 8.51q-.23.82-.67 1.17-.43.34-1.17.34-.69 0-2.05-.23-1.35-.23-2.64-.23-1.89 0-3.36.56-1.47.55-2.64 1.58-1.18 1.04-2.07 2.51-.9 1.47-1.68 3.36v29.07H337v-47.2h6.68q1.74 0 2.43.63.69.62.92 2.23Zm45.18-3.59q5.24 0 9.54 1.7 4.3 1.7 7.36 4.83 3.06 3.13 4.72 7.64 1.65 4.5 1.65 10.07 0 5.61-1.65 10.12-1.66 4.51-4.72 7.68-3.06 3.18-7.36 4.88-4.3 1.7-9.54 1.7-5.29 0-9.62-1.7-4.32-1.7-7.38-4.88-3.06-3.17-4.74-7.68-1.68-4.51-1.68-10.12 0-5.57 1.68-10.07 1.68-4.51 4.74-7.64 3.06-3.13 7.38-4.83 4.33-1.7 9.62-1.7Zm0 39.88q5.88 0 8.71-3.96 2.83-3.95 2.83-11.59 0-7.63-2.83-11.64-2.83-4-8.71-4-5.98 0-8.86 4.03-2.87 4.02-2.87 11.61t2.87 11.57q2.88 3.98 8.86 3.98Zm32.33-39.15h11.41v48.81q0 3.08-.8 5.8-.81 2.71-2.58 4.76-1.77 2.04-4.65 3.22-2.87 1.17-7.01 1.17-1.61 0-2.99-.21-1.38-.2-2.85-.66l.41-6.12q.14-.92.74-1.18.6-.25 2.3-.25 1.7 0 2.87-.34 1.18-.35 1.87-1.11.69-.76.98-2 .3-1.24.3-3.08v-48.81Zm12.98-13.75q0 1.47-.6 2.76-.6 1.29-1.59 2.25-.99.97-2.35 1.55-1.35.57-2.87.57-1.47 0-2.76-.57-1.29-.58-2.25-1.55-.97-.96-1.55-2.25-.57-1.29-.57-2.76 0-1.52.57-2.85.58-1.34 1.55-2.3.96-.97 2.25-1.54 1.29-.58 2.76-.58 1.52 0 2.87.58 1.36.57 2.35 1.54.99.96 1.59 2.3.6 1.33.6 2.85Zm18.99 31.92h21.44q0-2.2-.62-4.16-.62-1.95-1.86-3.43-1.25-1.47-3.16-2.32-1.9-.85-4.43-.85-4.93 0-7.76 2.81-2.83 2.8-3.61 7.95Zm28.98 6.86h-29.21q.28 3.63 1.29 6.28 1.01 2.64 2.67 4.37 1.66 1.72 3.93 2.57 2.28.85 5.04.85 2.76 0 4.76-.64t3.5-1.43q1.49-.78 2.62-1.42 1.13-.65 2.18-.65 1.43 0 2.12 1.06l3.27 4.14q-1.89 2.21-4.24 3.71-2.34 1.49-4.9 2.39-2.55.89-5.19 1.26-2.65.37-5.13.37-4.92 0-9.16-1.63-4.23-1.64-7.36-4.83-3.12-3.2-4.92-7.92-1.79-4.71-1.79-10.92 0-4.83 1.56-9.09 1.57-4.25 4.49-7.4 2.92-3.15 7.13-4.99 4.21-1.84 9.5-1.84 4.46 0 8.23 1.42 3.77 1.43 6.48 4.17 2.72 2.73 4.26 6.71 1.54 3.98 1.54 9.09 0 2.57-.55 3.47-.55.9-2.12.9Zm47.98-19.18-2.99 4.14q-.51.64-.99 1.01t-1.4.37q-.87 0-1.7-.53t-1.98-1.2q-1.15-.67-2.74-1.2-1.59-.52-3.93-.52-2.99 0-5.24 1.08-2.26 1.08-3.75 3.1-1.5 2.03-2.23 4.9-.74 2.88-.74 6.51 0 3.77.8 6.72.81 2.94 2.33 4.94 1.52 2 3.68 3.04 2.16 1.03 4.87 1.03 2.72 0 4.4-.67 1.68-.66 2.83-1.47 1.14-.8 2-1.47.85-.67 1.91-.67 1.37 0 2.06 1.06l3.27 4.14q-1.89 2.21-4.09 3.71-2.21 1.49-4.58 2.39-2.37.89-4.88 1.26-2.5.37-4.99.37-4.37 0-8.23-1.63-3.86-1.64-6.76-4.76-2.9-3.13-4.58-7.66-1.68-4.53-1.68-10.33 0-5.2 1.5-9.64 1.49-4.44 4.39-7.68 2.9-3.24 7.18-5.08 4.27-1.84 9.84-1.84 5.29 0 9.27 1.7 3.98 1.7 7.15 4.88Zm23.28 42.09q-6.17 0-9.46-3.48-3.28-3.47-3.28-9.59v-26.36h-4.84q-.91 0-1.56-.59-.64-.6-.64-1.8v-4.51l7.59-1.24 2.39-12.88q.23-.92.87-1.42.65-.51 1.66-.51h5.89v14.86h12.6v8.09h-12.6v25.58q0 2.21 1.08 3.45 1.08 1.24 2.96 1.24 1.06 0 1.78-.25.71-.25 1.24-.53t.94-.53q.42-.25.83-.25.5 0 .83.25.32.25.69.76l3.4 5.52q-2.48 2.07-5.7 3.13t-6.67 1.06Zm70.88-9.25h11.96v8.51h-36.8v-8.51h13.48v-38.78q0-2.3.14-4.74l-9.57 8.01q-.83.64-1.63.8-.81.16-1.52.03-.71-.14-1.27-.49-.55-.34-.82-.76l-3.59-4.92 20.28-17.25h9.34v58.1Z"/></svg>